# xmcd
#
# Track frame offsets:
#	150
#	17107
#	31145
#	49095
#	65825
#	79387
#	101817
#	114860
#	131045
#	151045
#
# Disc length: 2236 seconds
#
# Revision: 1
# Processed by: cddbd v1.5.2PL0 Copyright (c) Steve Scherf et al.
# Submitted via: EZCDAudioConverter 1.0.6.1
#
DISCID=7e08ba0a
DTITLE=Corey and the Hot Peppers - Unknown
DYEAR=1995
DGENRE=Blues
TTITLE0=Hit And Run
TTITLE1=Zydeco Turnaround
TTITLE2=Time After Time
TTITLE3=It's All Good
TTITLE4=Get Out Of The Way
TTITLE5=You Better Not Try It
TTITLE6=My Baby's Gone
TTITLE7=Nothing Else Matters
TTITLE8=Faites Pas Tout
TTITLE9=Warm Up
EXTD=
EXTT0=
EXTT1=
EXTT2=
EXTT3=
EXTT4=
EXTT5=
EXTT6=
EXTT7=
EXTT8=
EXTT9=
PLAYORDER=
